<!--?xml version="1.0" encoding="utf-8"?-->
<!-- Generator: Adobe Illustrator 18.1.1, SVG Export Plug-In . SVG Version: 6.00 Build 0)  -->

<svg version="1.1" id="_x32_" xmlns="http://www.w3.org/2000/svg" xmlns:xlink="http://www.w3.org/1999/xlink" x="0px" y="0px" viewBox="0 0 512 512" style="width: 256px; height: 256px; opacity: 1;" xml:space="preserve">
<style type="text/css">
	.st0{fill:#4B4B4B;}
</style>
<g>
	<circle class="st0" cx="392.592" cy="148.154" r="35.266" style="fill: rgb(0, 92, 175);"></circle>
	<path class="st0" d="M320.245,244.547l-41.222,70.927c-1.313-0.147-2.598-0.395-3.949-0.395c-3.214,0-6.263,0.57-9.221,1.368
		l-73.433-91.002c2.53-4.858,4.096-10.304,4.096-16.164c0-19.479-15.787-35.266-35.266-35.266
		c-19.479,0-35.266,15.787-35.266,35.266c0,7.89,2.682,15.108,7.062,20.986L38.922,395.383c-1.222-0.129-2.402-0.368-3.656-0.368
		C15.787,395.016,0,410.803,0,430.282c0,19.479,15.787,35.266,35.266,35.266s35.266-15.787,35.266-35.266
		c0-7.898-2.686-15.107-7.066-20.985L157.59,244.18c1.222,0.129,2.407,0.368,3.66,0.368c3.214,0,6.268-0.569,9.226-1.368
		l73.429,91.003c-2.53,4.858-4.096,10.304-4.096,16.163c0,19.479,15.787,35.266,35.266,35.266c19.479,0,35.266-15.787,35.266-35.266
		c0-7.788-2.603-14.924-6.883-20.764l41.157-70.808C335.992,255.054,327.845,250.26,320.245,244.547z" style="fill: rgb(0, 92, 175);"></path>
	<path class="st0" d="M504.34,231.58l-27.762-26.386l1.258-1.937c10.616-16.384,16.228-35.441,16.228-55.122
		c0-27.203-10.571-52.743-29.756-71.928c-19.186-19.185-44.721-29.755-71.919-29.755c-27.188,0-52.738,10.57-71.932,29.755
		c-19.189,19.204-29.76,44.744-29.76,71.928c0,27.194,10.57,52.734,29.755,71.937c19.199,19.185,44.748,29.755,71.937,29.755
		c19.659,0,38.719-5.62,55.131-16.246l1.938-1.258l26.532,27.901c4.124,4.987,9.368,7.724,14.768,7.724
		c5.032,0,10.001-2.305,14.363-6.668c4.675-4.656,7.118-10.24,6.86-15.704C511.743,240.369,509.153,235.584,504.34,231.58z
		 M434.038,189.793c-11.131,11.122-25.921,17.248-41.649,17.248c-15.722,0-30.513-6.125-41.648-17.256
		c-11.122-11.113-17.248-25.898-17.248-41.649c0-15.742,6.126-30.527,17.248-41.64c11.136-11.131,25.926-17.256,41.648-17.256
		c15.723,0,30.51,6.125,41.658,17.256C456.998,129.465,456.998,166.825,434.038,189.793z" style="fill: rgb(0, 92, 175);"></path>
</g>
</svg>
